<svg width="1366" height="229" viewBox="0 0 1366 229" fill="none" xmlns="http://www.w3.org/2000/svg">
<path fill-rule="evenodd" clip-rule="evenodd" d="M1366 176.569C1347.5 172.74 1329.08 168.974 1310.99 165.273L1310.99 165.273C1278.27 158.581 1246.6 152.104 1217.39 145.862C1110.52 123.024 998.866 110.59 885.941 98.0154C824.929 91.2213 763.545 84.3858 702.342 75.8455C640.836 67.2627 577.857 55.1054 515.317 43.0326L515.316 43.0324C395.552 19.9134 277.395 -2.89553 174.259 0.300998C75.035 3.37627 42.9722 29.551 10.2843 56.2362L10.2842 56.2362C6.88825 59.0086 3.4855 61.7865 0 64.5445V229H1366V176.569Z" fill="#DDDBF2" fill-opacity="0.26"/>
</svg>
